<svg xmlns="http://www.w3.org/2000/svg" viewBox="0 0 48.968 43.939"><path fill="#0e8784" d="M39 43.768a18.34 18.34 0 01-4.067-3.79.413.413 0 01.324-.667h5.707a.413.413 0 01.4.517l-.849 3.361a.993.993 0 01-.963.751.98.98 0 01-.552-.172zm-5.7-6.515a.3.3 0 01-.148-.036 15.069 15.069 0 01-3.779-7.327.316.316 0 00-.545-.16l-1.785 1.985A.86.86 0 0126.4 32a.559.559 0 01-.551-.465 4.866 4.866 0 00-4.956-4.374 33.65 33.65 0 00-8.231 1.7A12.569 12.569 0 006.935 33.2a.443.443 0 01-.36.181H4.569a.454.454 0 01-.447-.522c.483-3.092-.869-6.261-2.324-9.177C1.207 22.5.6 21.359.1 20.279a1.108 1.108 0 01-.07-.719l.92-3.86a1.084 1.084 0 01.73-.786c1.97-.614 8.258-2.851 8.82-6.134a.306.306 0 01.093-.171l5.362-5.2a.318.318 0 01.468.031 3.582 3.582 0 004 1.355l-.648-.657a.318.318 0 01.005-.455l2.451-2.323a.3.3 0 01.216-.088h7.476a.321.321 0 01.247.523l-2.4 2.931a.322.322 0 00.072.471c.853.558 3.347 2.2 4.884 3.206a1.484 1.484 0 002.191-.678 12.514 12.514 0 00.771-4.71.3.3 0 01.021-.114L36.746.2a.317.317 0 01.571-.04 10.4 10.4 0 011.419 4.98l.5-.362a.316.316 0 01.437.061l1.09 1.427a.341.341 0 01.061.222c-.072.77-.273 5.016 3.435 6.717a.311.311 0 01.154.149l4.524 9.1a.35.35 0 01.032.145v3.831a2.037 2.037 0 01-.684 1.526c-1.774 1.582-6.412 5.971-6.7 9.012a.313.313 0 01-.313.284z"/></svg>