<svg xmlns="http://www.w3.org/2000/svg" viewBox="0 0 51.559 49.956"><path fill="#0e8784" d="M29.938 43.3l-4.99-3.326-2.495 4.158-19.958-9.976L0 26.672l2.786-2.759-1.954-8.052 6.652-7.485L18.3 19.187l3.326-3.326 5.821 3.326-2.495 3.326-3.326 6.653 5.821 2.495 2.495 4.158 2.495-4.99-3.326-4.158 3.326-2.495 3.322 3.324 3.326-3.326 4.99 4.99v3.326l-4.99 3.326 5.821 2.495-.832 4.99h-6.652l-4.158 6.653zM47.4 47.462a.832.832 0 010-1.663h1.663a.832.832 0 110 1.663zm1.663-11.642a.832.832 0 010-1.663h1.663a.832.832 0 110 1.663zm-15.8-15.8v-2.496L30.769 14.2l-1.321.564-3.322-2.416.6-2.717 5.7-.421 7.484 5.821-1.663 4.99-2.495 1.663zM12.474 7.545L15.8 4.217l6.653 6.654-4.305 1.729zm8.316-4.158L22.831 0l5.443.06v4.99l-4.99.832z"/></svg>