<svg xmlns="http://www.w3.org/2000/svg" viewBox="0 0 40.841 49.072"><path fill="#0e8784" d="M9.607 48.721c4-1.453 4.617-6.625 10.4-6.38-1.792-.744-2.542-1.084-3.316-1.367-2.331-.841-2.642-2.478-.9-4.372.98-1.064 1.658-2.2-.564-2.667-2.1-.433.278-1.67-.414-2.616-.372-.511.851-.655 1.556-.567 2.089.27 5.041.631 4.23-2.422-.522-1.956-.828-5.872-4.689-5.364-3.655.481-4.8-.425-2.516-3.741a2.456 2.456 0 00-1.686.247c-1.185.443-2.289.886-1.861-1.911a.883.883 0 00-.389-.575c-.842.266-1.742 2.331-2.464.45-.711-1.85 2.439-.956 2.514-3.2-.147-.478-2.833.292-1.877-1.028 2.194-3.028.116-4.12-1.764-5.594-.339-.265 0-.725.041-1.153 0-.009-.005-.023-.005-.031a.592.592 0 00-.086-.383c-.088-.061-.164-.092-.256-.153h.009a.461.461 0 00.031-.05c.022-.008.047-.013.069-.022.1.069.1.144.152.225 2.464 1.547 3.842.716 4.806-1.442.133-.311.261-.647.386-1.005C12.515-.813 16.7.529 19.826.032c1.828-.286 1.245 1.417.453 2.236-.919.964-2.406 1.391-2.941 3.528 2.361 0 4.4.047 6.439-.014 2.62-.077 3.064.876 1.619 3-.711 1.049-1.116 2.319-1.9 3.3-1.514 1.894-1.48 3.19 1 4.072a2.664 2.664 0 011.589 1.342c1.589 5.63 7.847 8.311 8.883 14.206.165.922-.008 1.4 1.264 1.294 1.833-.172 4-.194 4.514 2.145.492 2.23-1.1 3.649-2.8 4.828a5.3 5.3 0 00-.883 1c.313 1.37 2.371.075 2.386 1.431.011 1.128-1.2 1.652-2.033 1.911A41.529 41.529 0 0124.29 46c-4.028-.089-7.189 2.2-10.922 2.739a12.447 12.447 0 01-2.078.337 4.432 4.432 0 01-1.683-.355zM1.143 26.187A1.443 1.443 0 010 24.66c.122-1.556 4.864-4.725 6.969-4.6 2.725.149 2.856 2.691 3.934 4.045-.092 1.833-1.2 2.869-2.392 2.875h-.252a44.693 44.693 0 01-7.116-.793zM3.332 7.643c.217.342.33.636-.092.784a1.11 1.11 0 01.092-.784zm.568-1.85C3.718 2.974 5.232 1.58 7.857.879c.75 2.537-1.542 3.378-2.257 4.964-.4.1-.8.209-1.194.311a12.021 12.021 0 00-1.071 1.489c-.464-.725-1.464-1.65.565-1.85z"/></svg>